<?xml version="1.0" standalone="no"?>
<!DOCTYPE svg PUBLIC "-//W3C//DTD SVG 20010904//EN"
 "http://www.w3.org/TR/2001/REC-SVG-20010904/DTD/svg10.dtd">
<svg version="1.0" xmlns="http://www.w3.org/2000/svg"
 width="117.000000pt" height="40.000000pt" viewBox="0 0 117.000000 40.000000"
 preserveAspectRatio="xMidYMid meet">
<metadata>
Created by potrace 1.13, written by Peter Selinger 2001-2015
</metadata>
<g transform="translate(0.000000,40.000000) scale(0.100000,-0.100000)"
fill="#000000" stroke="none">
<path d="M230 222 c-40 -41 -41 -83 -1 -123 19 -19 40 -29 59 -29 32 0 82 33
70 46 -5 4 -16 0 -26 -9 -28 -26 -67 -21 -92 11 l-22 27 76 3 c72 3 76 4 76
26 0 35 -30 66 -72 73 -32 5 -41 1 -68 -25z"/>
<path d="M1010 222 c-40 -41 -41 -83 -1 -123 19 -19 40 -29 59 -29 32 0 82 33
70 46 -5 4 -16 0 -26 -9 -28 -26 -67 -21 -92 11 l-22 27 76 3 c72 3 76 4 76
26 0 35 -30 66 -72 73 -32 5 -41 1 -68 -25z"/>
</g>
</svg>
