<?xml version="1.0" encoding="UTF-8" ?>
<!DOCTYPE svg PUBLIC "-//W3C//DTD SVG 1.1//EN" "http://www.w3.org/Graphics/SVG/1.1/DTD/svg11.dtd">
<svg width="117pt" height="40pt" viewBox="0 0 117 40" version="1.1" xmlns="http://www.w3.org/2000/svg">
<path fill="#ffffff" d=" M 0.00 0.00 L 117.00 0.00 L 117.00 40.00 L 0.00 40.00 L 0.00 0.00 Z" />
<path fill="#383c3f" d=" M 43.00 4.00 C 43.57 4.00 44.70 4.00 45.27 4.00 C 45.27 10.39 45.27 16.78 45.27 23.18 C 48.18 20.47 51.07 17.73 53.98 15.01 C 54.85 15.01 56.61 14.99 57.49 14.98 C 54.30 17.64 51.31 20.52 48.20 23.26 C 51.68 26.44 54.98 29.82 58.49 32.98 C 57.59 32.98 55.79 32.99 54.89 33.00 C 51.69 29.79 48.49 26.58 45.27 23.39 C 45.26 26.60 45.27 29.80 45.27 33.00 C 44.70 33.00 43.57 33.00 43.00 33.00 C 43.00 23.33 43.00 13.67 43.00 4.00 Z" />
<path fill="#383c3f" d=" M 1.00 6.00 C 6.68 6.02 12.35 5.98 18.02 5.98 C 19.70 5.76 21.23 6.37 22.52 7.41 C 19.11 8.20 15.60 8.00 12.13 8.02 C 12.14 16.34 12.13 24.67 12.14 33.00 C 11.50 33.00 10.23 33.00 9.60 33.00 C 9.60 24.67 9.60 16.33 9.60 8.00 C 6.73 8.00 3.87 8.00 1.00 8.00 C 1.00 7.50 1.00 6.50 1.00 6.00 Z" />
<path fill="#383c3f" d=" M 75.55 9.10 C 75.91 5.94 78.98 7.00 80.01 9.06 C 78.60 9.83 76.91 10.30 75.55 9.10 Z" />
<path fill="#383c3f" d=" M 63.26 9.99 C 63.85 10.00 65.03 10.01 65.63 10.02 C 65.60 11.60 65.58 13.18 65.55 14.75 C 67.71 14.98 69.89 15.21 71.98 15.89 C 69.98 16.88 67.75 17.05 65.57 17.23 C 65.71 21.50 65.34 25.79 65.82 30.05 C 67.40 31.61 69.85 30.50 71.77 30.91 C 69.85 33.79 64.72 33.90 63.61 30.32 C 62.90 26.07 63.37 21.72 63.31 17.43 C 61.61 16.98 59.91 16.52 58.25 15.94 C 59.51 15.62 62.03 14.98 63.29 14.66 C 63.28 13.11 63.27 11.55 63.26 9.99 Z" />
<path fill="#383c3f" d=" M 87.25 9.99 C 87.85 10.00 89.04 10.02 89.63 10.03 C 89.60 11.61 89.58 13.19 89.54 14.77 C 91.73 14.97 93.98 15.10 95.99 16.10 C 93.91 16.79 91.73 17.02 89.57 17.24 C 89.71 21.50 89.34 25.77 89.81 30.01 C 91.35 31.65 93.86 30.48 95.77 30.91 C 93.86 33.79 88.73 33.89 87.62 30.33 C 86.89 26.02 87.38 21.60 87.30 17.25 C 85.95 16.70 82.73 17.72 83.39 15.31 C 84.37 15.17 86.33 14.89 87.30 14.75 C 87.28 13.17 87.27 11.58 87.25 9.99 Z" />
<path fill="#383c3f" d=" M 23.03 17.09 C 26.39 14.01 32.24 14.27 35.18 17.82 C 36.92 19.77 36.98 22.51 37.35 24.96 C 32.16 25.09 26.96 24.80 21.78 25.25 C 22.98 27.54 24.25 30.26 27.08 30.82 C 30.85 32.30 33.50 28.06 37.21 28.65 C 34.45 32.85 28.54 34.39 24.20 31.81 C 19.07 28.94 18.55 20.77 23.03 17.09 Z" />
<path fill="#383c3f" d=" M 76.40 15.01 C 76.98 15.01 78.15 15.00 78.73 14.99 C 78.73 21.00 78.73 27.00 78.73 33.01 C 78.15 33.00 76.98 32.99 76.39 32.98 C 76.41 26.99 76.40 21.00 76.40 15.01 Z" />
<path fill="#383c3f" d=" M 101.67 16.58 C 105.08 14.02 110.44 14.50 113.18 17.83 C 114.93 19.78 114.98 22.52 115.35 24.96 C 110.17 25.08 104.98 24.81 99.81 25.23 C 100.97 27.55 102.25 30.27 105.08 30.82 C 108.84 32.24 111.53 28.17 115.22 28.59 C 112.25 33.30 105.21 34.63 100.96 30.92 C 96.74 27.34 97.03 19.70 101.67 16.58 Z" />
<path fill="#ffffff" d=" M 21.92 22.78 C 23.27 19.94 25.43 16.55 29.07 16.97 C 32.42 16.98 34.13 20.15 35.31 22.80 C 30.85 23.10 26.38 23.11 21.92 22.78 Z" />
<path fill="#ffffff" d=" M 99.92 22.78 C 101.27 19.97 103.39 16.58 107.01 16.97 C 110.39 16.94 112.13 20.13 113.31 22.80 C 108.85 23.09 104.37 23.11 99.92 22.78 Z" />
</svg>
